<?xml version="1.0" encoding="UTF-8"?>
<svg id="_4" data-name=" 4" xmlns="http://www.w3.org/2000/svg" xmlns:xlink="http://www.w3.org/1999/xlink" viewBox="0 0 942.546 799.691">
  <defs>
    <style>
      .cls-1 {
        fill: url(#linear-gradient-2);
        isolation: isolate;
        opacity: .7;
      }

      .cls-2 {
        fill: url(#linear-gradient);
      }

      .cls-3 {
        fill: #f0ece9;
      }

      .cls-4 {
        fill: #fff;
      }

      .cls-5 {
        fill: #7bc7c3;
      }

      .cls-6 {
        fill: #9fe0de;
      }

      .cls-7 {
        fill: #5a5a5a;
      }

      .cls-8 {
        fill: url(#linear-gradient-3);
      }
    </style>
    <linearGradient id="linear-gradient" x1="196.07" y1="429.102" x2="829.441" y2="429.102" gradientTransform="translate(0 798.666) scale(1 -1)" gradientUnits="userSpaceOnUse">
      <stop offset=".139" stop-color="#fae397"/>
      <stop offset=".239" stop-color="#f7d6a5"/>
      <stop offset=".385" stop-color="#f4cab3"/>
      <stop offset=".566" stop-color="#f2c4bb"/>
      <stop offset=".887" stop-color="#f2c2be"/>
    </linearGradient>
    <linearGradient id="linear-gradient-2" x1="441.992" y1="445.229" x2="825.604" y2="445.229" gradientTransform="translate(0 798.666) scale(1 -1)" gradientUnits="userSpaceOnUse">
      <stop offset="0" stop-color="#f4cbb3"/>
      <stop offset="1" stop-color="#fff"/>
    </linearGradient>
    <linearGradient id="linear-gradient-3" x1="195.886" y1="405.951" x2="807.862" y2="405.951" gradientTransform="translate(0 798.666) scale(1 -1)" gradientUnits="userSpaceOnUse">
      <stop offset=".404" stop-color="#debd67"/>
      <stop offset=".509" stop-color="#e2b881"/>
      <stop offset=".648" stop-color="#eab2aa"/>
    </linearGradient>
  </defs>
  <g id="blue_dark_2" data-name="blue dark 2">
    <g id="cloud">
      <g id="cloud-2">
        <path class="cls-6" d="m150.484,233.091c0-122.015,93.913-220.928,215.928-220.928s232.928,98.913,232.928,220.928-131.947,213.772-253.962,213.772-194.893-91.757-194.893-213.772h0Z"/>
        <path class="cls-6" d="m11.116,359.2c0-78.7,66.799-146.498,145.498-146.498s144.498,67.799,144.498,146.498-63.799,145.498-142.498,145.498S11.116,437.899,11.116,359.2Z"/>
        <path class="cls-6" d="m518.669,288.021c0-100.405,62.508-181.8,181.8-181.8,100.405,0,181.8,72.967,181.8,181.8,0,100.405-83.395,168.8-183.8,168.8s-179.8-68.395-179.8-168.8Z"/>
      </g>
      <g id="cloud_stroke" data-name="cloud stroke">
        <path class="cls-5" d="m152.896,517.766c-38.751,0-77.911-18.276-107.438-50.144C16.568,436.445,0,395.97,0,356.576s15.393-78.726,42.232-107.842c25.875-28.071,59.562-44.456,95.636-46.709,3.044-16.981,12.203-56.457,36.324-96.323,18.532-30.628,42.069-55.067,69.958-72.638C278.972,11.124,320.517,0,367.631,0c34.888,0,68.3,7.135,99.311,21.208,24.746,11.23,47.986,26.865,69.075,46.472,24.746,23.009,40.571,45.894,48.23,58.313,40.065-24.653,67.814-31.988,116.532-31.988,50.99,0,99.251,18.408,135.891,51.833,38.155,34.808,59.169,82.439,59.169,134.12,0,49.305-22.293,96.481-62.772,132.837-38.715,34.772-89.517,54.715-139.378,54.715-35.286,0-69.673-9.621-99.441-27.823-25.016-15.296-45.866-36.053-60.964-60.558-41.105,44.21-99.427,69.829-165.266,72.379-38.454,1.495-74.356-2.024-88.768-3.711-27.442,43.324-75.254,69.97-126.354,69.97h0ZM367.631,20c-43.124,0-80.967,10.016-112.476,29.769-25.205,15.801-46.569,37.907-63.497,65.702-29.239,48.009-35.188,96.939-35.245,97.428l-1.026,8.848-8.908.01c-33.648,0-65.449,14.395-89.542,40.532-23.475,25.466-36.938,59.833-36.938,94.287s14.626,69.931,40.128,97.453c25.755,27.796,59.567,43.737,92.769,43.737,22.975,0,45.724-6.335,65.79-18.32,19.454-11.62,35.597-27.994,46.683-47.353l3.362-5.872,6.703.938c.443.062,44.854,6.184,91.811,4.363,63.36-2.455,118.983-27.987,156.642-71.892l12.917-16.376,7.085,13.934c13.643,26.831,34.664,49.458,60.793,65.434,26.626,16.281,57.404,24.886,89.008,24.886,44.991,0,90.922-18.076,126.015-49.595,36.199-32.513,56.136-74.404,56.136-117.958,0-45.988-18.697-88.372-52.648-119.344-32.469-29.621-77.086-46.609-122.411-46.609-43.322,0-68.814,4.779-114.555,34.396l-9.296,6.019-5.037-9.849c-.162-.314-16.555-31.786-50.017-62.729-19.479-18.013-40.876-32.346-63.597-42.602-28.282-12.767-58.78-19.24-90.647-19.24l-.002.003Z"/>
      </g>
    </g>
    <path id="body_fill" data-name="body fill" class="cls-3" d="m514.29,790.683c-73.282,0-146.524-5-146.524-5-92.8,0-168.728-75.927-168.728-168.728v-35.271c0-26.748-2-49.455,17.061-73.925-19.061-24.177-19.061-42.49-19.061-63.82,0-152.149,143.143-232.183,317.252-232.183s315.252,80.034,315.252,232.183c0,21.33,2,39.643-17.061,63.82,19.061,24.471,17.061,47.178,17.061,73.925v35.271c0,92.8-75.927,168.728-168.728,168.728,0,0-73.242,5-146.524,5h0Z"/>
    <path id="shadow_body" data-name="shadow body" class="cls-4" d="m685.503,775.456c57.045-50.795,86.718-83.434,90.288-159.5s-2.807-96.825-2.807-96.825c0,0,20.698-4.417,27.063-11.364,15.398,12.805,23.064,36.776,23.136,90.626.115,84.967-17.477,120.96-70.31,153.803-52.833,32.842-67.37,23.261-67.37,23.261h0Z"/>
    <path id="hair" class="cls-2" d="m829.441,445.726c0-154.997-144.964-231.953-315.151-231.953s-318.22,83.521-318.22,232.243c17.732,89.46,108.307,118.752,176.444,5.619,32.14,71.283,120.843,45.887,151.133.166,38.487,75.633,132.08,43.736,160.084.302,4.62,54.171,119.899,124.605,145.71-6.377h0Z"/>
    <path id="flare_hair" data-name="flare hair" class="cls-1" d="m450.642,265.771c75.207-5.695,212.443-21.382,296.09,94.49,35.84,49.647,29.08,101.098,29.08,101.098,0,0,40.813-16.183,36.901,36.091,3.669-5.275,38.921-80.785-25.62-176.473-61.597-91.324-196.925-127.46-345.101-105.136l8.649,49.93h.001Z"/>
    <path id="blik_hair" data-name="blik hair" class="cls-8" d="m196.07,446.016c17.732,89.46,108.307,118.752,176.444,5.619,32.14,71.283,120.843,45.887,151.133.166,38.487,75.633,132.08,43.736,160.084.302,3.771,42.329,71.559,94.299,116.316,55.663,0,0,6.593-4.644,7.815-8.055-28.28,6.547-78.136,7.778-119.692-55.738-15.445,17.317-89.693,65.525-160.069-1.404-30.507,34.186-99.082,46.496-151.644-2.34-54.354,72.371-113.155,69.861-136.218,41.134-23.48-29.246-19.622-126.573,88.323-221.288-10.835.657-55.956,21.219-92.545,70.086-20.582,27.489-42.364,62.4-39.946,115.854h0Z"/>
    <path id="body_stroke" data-name="body stroke" class="cls-7" d="m513.804,799.691c-56.376,0-112.58-1.009-146.629-3.025h0c-47.413-2.809-92.134-22.297-125.923-54.874-34.96-33.705-54.213-78.04-54.213-124.836v-35.271c0-25.103,0-48.922,16.646-73.812-16.221-22.767-19.646-41.622-19.646-63.934,0-75.235,34.328-137.981,99.272-181.457,58.497-39.16,140.527-60.726,230.979-60.726s172.482,21.566,230.979,60.726c64.944,43.476,99.272,106.222,99.272,181.457,0,22.312-3.425,41.167-19.646,63.934,16.645,24.89,16.646,48.709,16.646,73.812v35.271c0,46.646-19.493,91.016-54.888,124.934-33.533,32.135-79.188,52.1-125.26,54.777-34.694,2.016-91.229,3.024-147.591,3.024h.002Zm-145.447-22.99c67.544,4,223.029,4.001,291.878,0,41.396-2.405,82.431-20.356,112.582-49.251,31.421-30.109,48.726-69.351,48.726-110.493v-35.271c0-25.711,0-46.02-16.95-67.779l-4.816-6.183,4.853-6.154c16.74-21.233,19.914-36.635,19.914-57.629,0-68.249-31.259-125.248-90.398-164.837-55.241-36.979-133.319-57.345-219.854-57.345s-164.613,20.366-219.854,57.345c-59.139,39.589-90.397,96.589-90.397,164.837,0,20.994,3.174,36.396,19.914,57.629l4.853,6.154-4.816,6.183c-16.95,21.76-16.95,42.068-16.95,67.779v35.271c0,41.315,17.08,80.537,48.094,110.438,30.356,29.267,70.572,46.778,113.225,49.307h-.004Z"/>
    <g>
      <path class="cls-5" d="m762.93,81.799c-.864,0-1.743-.133-2.609-.412-4.468-1.44-6.923-6.229-5.482-10.698l13.866-43.024c1.439-4.469,6.232-6.924,10.697-5.483,4.468,1.44,6.923,6.229,5.482,10.698l-13.866,43.024c-1.16,3.602-4.497,5.895-8.088,5.895Z"/>
      <path class="cls-5" d="m822.275,79.024c-2.109,0-4.222-.78-5.867-2.351-3.396-3.241-3.521-8.622-.28-12.018l25.887-27.123c3.242-3.397,8.623-3.521,12.017-.28,3.396,3.241,3.521,8.622.28,12.018l-25.887,27.123c-1.67,1.75-3.908,2.631-6.149,2.631h-.001Z"/>
      <path class="cls-5" d="m881.296,108.72c-2.672,0-5.302-1.255-6.957-3.606-2.703-3.838-1.783-9.141,2.055-11.844l29.757-20.959c3.838-2.704,9.142-1.783,11.844,2.055,2.703,3.838,1.783,9.141-2.055,11.844l-29.757,20.959c-1.487,1.048-3.196,1.551-4.887,1.551Z"/>
      <path class="cls-5" d="m903.275,172.133c-3.192,0-6.251-1.807-7.699-4.887-1.996-4.249-.171-9.312,4.078-11.308l30.774-14.462c4.25-1.999,9.311-.171,11.309,4.078,1.996,4.249.171,9.312-4.078,11.308l-30.774,14.462c-1.169.549-2.398.809-3.609.809h-.001Z"/>
    </g>
    <g id="eyes">
      <circle class="cls-7" cx="429.018" cy="581.093" r="17.299"/>
      <circle class="cls-7" cx="598.476" cy="581.093" r="17.299"/>
    </g>
    <path id="smile" class="cls-7" d="m513.28,628.768c-19.941,0-37.165-14.729-37.165-28.638,0-4.204,4.258-4.592,7-4.592,2.424,0,6.085.388,7,3.592,2.585,9.049,10.943,17.067,23.165,17.067s20.873-7.94,23.165-17.067c.683-2.72,4.361-3.592,7-3.592,2.731,0,7.239.006,7,4.592-.711,13.66-17.224,28.638-37.165,28.638Z"/>
  </g>
</svg>